<svg width="163" height="135" viewBox="0 0 163 135" fill="none" xmlns="http://www.w3.org/2000/svg">
<mask id="path-1-inside-1_140_113" fill="white">
<path d="M104.209 53.6299C103.977 53.2808 103.814 52.8881 103.73 52.4744C103.646 52.0606 103.642 51.6339 103.718 51.2185C103.794 50.8032 103.95 50.4073 104.175 50.0536C104.401 49.6999 104.692 49.3953 105.032 49.1572L158.075 11.9032C158.762 11.4211 159.607 11.2387 160.425 11.3964C161.243 11.554 161.966 12.0387 162.436 12.7439C162.906 13.449 163.083 14.3168 162.93 15.1564C162.776 15.9959 162.304 16.7384 161.617 17.2206L108.59 54.4665C107.908 54.9518 107.066 55.1397 106.249 54.9889C105.433 54.8381 104.707 54.3609 104.233 53.6621L104.209 53.6299ZM162.432 122.112C161.958 122.811 161.232 123.288 160.416 123.439C159.599 123.59 158.757 123.402 158.075 122.917L84.6188 71.3117L47.3734 97.4803C50.2619 103.244 50.9264 109.913 49.2341 116.158C47.5418 122.402 43.6172 127.761 38.2443 131.165C32.8713 134.568 26.4454 135.766 20.2498 134.519C14.0542 133.271 8.54504 129.671 4.82247 124.436C1.0999 119.201 -0.562057 112.717 0.168513 106.279C0.899084 99.841 3.96841 93.923 8.76351 89.7066C13.5586 85.4903 19.7266 83.2861 26.0355 83.5342C32.3445 83.7822 38.3302 86.4643 42.7971 91.0447C43.1497 91.4067 43.4945 91.7848 43.8236 92.171L79.0865 67.4101L43.8236 42.6492C43.4945 43.0353 43.1497 43.4536 42.7971 43.7754C38.3477 48.3316 32.3882 50.9976 26.1081 51.2412C19.8281 51.4847 13.6896 49.288 8.91805 45.0894C4.14646 40.8909 1.09281 34.9994 0.366679 28.5911C-0.359449 22.1828 1.29536 15.729 5.00077 10.5182C8.70619 5.30738 14.1896 1.72281 20.3564 0.480069C26.5232 -0.762676 32.9197 0.427825 38.269 3.81392C43.6184 7.20001 47.527 12.5326 49.2146 18.7472C50.9022 24.9617 50.2448 31.6011 47.3734 37.3398L86.3114 64.691L161.609 117.591C161.956 117.83 162.253 118.137 162.483 118.494C162.712 118.852 162.87 119.253 162.947 119.674C163.023 120.095 163.017 120.528 162.929 120.947C162.841 121.365 162.672 121.762 162.432 122.112ZM38.3853 39.2544C39.2001 38.4182 39.9397 37.5082 40.5951 36.5354C43.341 32.4457 44.4459 27.427 43.68 22.5226C42.9141 17.6181 40.3365 13.2054 36.4829 10.2018C32.6294 7.19816 27.7965 5.83476 22.9889 6.39502C18.1813 6.95529 13.7691 9.39611 10.6694 13.21C7.56978 17.024 6.02123 21.9176 6.34574 26.8734C6.67025 31.8293 8.84284 36.4661 12.4118 39.8198C15.9808 43.1736 20.6716 44.9862 25.5089 44.8809C30.3463 44.7756 34.958 42.7605 38.3853 39.2544ZM43.8706 109.241C43.8829 105.369 42.7488 101.585 40.6186 98.3893V98.3411C39.9582 97.3479 39.2107 96.419 38.3853 95.5657C35.7525 92.8723 32.4014 91.0402 28.755 90.3007C25.1086 89.5612 21.3305 89.9474 17.8978 91.4107C14.4651 92.8739 11.5317 95.3485 9.4681 98.522C7.40447 101.696 6.30311 105.426 6.30311 109.241C6.30311 113.057 7.40447 116.787 9.4681 119.961C11.5317 123.134 14.4651 125.609 17.8978 127.072C21.3305 128.535 25.1086 128.921 28.755 128.182C32.4014 127.442 35.7525 125.61 38.3853 122.917C40.1355 121.123 41.5216 118.991 42.4632 116.644C43.4048 114.296 43.8832 111.78 43.8706 109.241Z"/>
</mask>
<path d="M104.209 53.6299C103.977 53.2808 103.814 52.8881 103.73 52.4744C103.646 52.0606 103.642 51.6339 103.718 51.2185C103.794 50.8032 103.95 50.4073 104.175 50.0536C104.401 49.6999 104.692 49.3953 105.032 49.1572L158.075 11.9032C158.762 11.4211 159.607 11.2387 160.425 11.3964C161.243 11.554 161.966 12.0387 162.436 12.7439C162.906 13.449 163.083 14.3168 162.93 15.1564C162.776 15.9959 162.304 16.7384 161.617 17.2206L108.59 54.4665C107.908 54.9518 107.066 55.1397 106.249 54.9889C105.433 54.8381 104.707 54.3609 104.233 53.6621L104.209 53.6299ZM162.432 122.112C161.958 122.811 161.232 123.288 160.416 123.439C159.599 123.59 158.757 123.402 158.075 122.917L84.6188 71.3117L47.3734 97.4803C50.2619 103.244 50.9264 109.913 49.2341 116.158C47.5418 122.402 43.6172 127.761 38.2443 131.165C32.8713 134.568 26.4454 135.766 20.2498 134.519C14.0542 133.271 8.54504 129.671 4.82247 124.436C1.0999 119.201 -0.562057 112.717 0.168513 106.279C0.899084 99.841 3.96841 93.923 8.76351 89.7066C13.5586 85.4903 19.7266 83.2861 26.0355 83.5342C32.3445 83.7822 38.3302 86.4643 42.7971 91.0447C43.1497 91.4067 43.4945 91.7848 43.8236 92.171L79.0865 67.4101L43.8236 42.6492C43.4945 43.0353 43.1497 43.4536 42.7971 43.7754C38.3477 48.3316 32.3882 50.9976 26.1081 51.2412C19.8281 51.4847 13.6896 49.288 8.91805 45.0894C4.14646 40.8909 1.09281 34.9994 0.366679 28.5911C-0.359449 22.1828 1.29536 15.729 5.00077 10.5182C8.70619 5.30738 14.1896 1.72281 20.3564 0.480069C26.5232 -0.762676 32.9197 0.427825 38.269 3.81392C43.6184 7.20001 47.527 12.5326 49.2146 18.7472C50.9022 24.9617 50.2448 31.6011 47.3734 37.3398L86.3114 64.691L161.609 117.591C161.956 117.83 162.253 118.137 162.483 118.494C162.712 118.852 162.87 119.253 162.947 119.674C163.023 120.095 163.017 120.528 162.929 120.947C162.841 121.365 162.672 121.762 162.432 122.112ZM38.3853 39.2544C39.2001 38.4182 39.9397 37.5082 40.5951 36.5354C43.341 32.4457 44.4459 27.427 43.68 22.5226C42.9141 17.6181 40.3365 13.2054 36.4829 10.2018C32.6294 7.19816 27.7965 5.83476 22.9889 6.39502C18.1813 6.95529 13.7691 9.39611 10.6694 13.21C7.56978 17.024 6.02123 21.9176 6.34574 26.8734C6.67025 31.8293 8.84284 36.4661 12.4118 39.8198C15.9808 43.1736 20.6716 44.9862 25.5089 44.8809C30.3463 44.7756 34.958 42.7605 38.3853 39.2544ZM43.8706 109.241C43.8829 105.369 42.7488 101.585 40.6186 98.3893V98.3411C39.9582 97.3479 39.2107 96.419 38.3853 95.5657C35.7525 92.8723 32.4014 91.0402 28.755 90.3007C25.1086 89.5612 21.3305 89.9474 17.8978 91.4107C14.4651 92.8739 11.5317 95.3485 9.4681 98.522C7.40447 101.696 6.30311 105.426 6.30311 109.241C6.30311 113.057 7.40447 116.787 9.4681 119.961C11.5317 123.134 14.4651 125.609 17.8978 127.072C21.3305 128.535 25.1086 128.921 28.755 128.182C32.4014 127.442 35.7525 125.61 38.3853 122.917C40.1355 121.123 41.5216 118.991 42.4632 116.644C43.4048 114.296 43.8832 111.78 43.8706 109.241Z" fill="black" stroke="black" stroke-width="2000" mask="url(#path-1-inside-1_140_113)"/>
</svg>
