<svg width="41" height="41" viewBox="0 0 41 41" fill="none" xmlns="http://www.w3.org/2000/svg">
<path d="M27.7148 25.6213L26.5814 24.5464L27.7148 25.6234V25.6213ZM34.8939 37.5109L33.7585 36.4338L34.8919 37.5109H34.8939ZM32.1314 38.9901L32.2856 40.5422L32.1314 38.988V38.9901ZM3.12311 9.74218C3.11203 9.53727 3.0607 9.33654 2.97204 9.15146C2.88339 8.96638 2.75915 8.80058 2.60642 8.66351C2.45368 8.52645 2.27545 8.42081 2.08189 8.35263C1.88833 8.28445 1.68324 8.25506 1.47832 8.26614C1.2734 8.27722 1.07268 8.32856 0.887598 8.41721C0.70252 8.50587 0.536716 8.63011 0.399653 8.78284C0.26259 8.93557 0.156952 9.11381 0.0887704 9.30737C0.020589 9.50092 -0.0088007 9.70602 0.00227958 9.91093L3.12311 9.74218ZM5.13561 1.75677C4.862 2.05914 4.71744 2.4565 4.7328 2.86401C4.74816 3.27151 4.92223 3.65686 5.21783 3.93778C5.51343 4.21869 5.90714 4.37291 6.3149 4.36751C6.72266 4.36211 7.11214 4.1975 7.4002 3.90885L5.13561 1.75677ZM17.5231 36.5901C17.6969 36.7021 17.8911 36.7785 18.0946 36.8148C18.298 36.8512 18.5067 36.8468 18.7085 36.802C18.9103 36.7572 19.1011 36.6727 19.27 36.5536C19.439 36.4345 19.5826 36.283 19.6925 36.108C19.8025 35.933 19.8767 35.7379 19.9107 35.534C19.9447 35.3302 19.938 35.1216 19.8908 34.9203C19.8437 34.7191 19.7571 34.5292 19.636 34.3616C19.515 34.1941 19.3619 34.0522 19.1856 33.9443L17.5231 36.5901ZM26.7919 37.1026C26.386 37.0178 25.9631 37.0977 25.6162 37.3247C25.2692 37.5517 25.0267 37.9072 24.9419 38.313C24.857 38.7189 24.9369 39.1418 25.1639 39.4887C25.3909 39.8356 25.7464 40.0782 26.1523 40.163L26.7919 37.1026ZM27.9002 27.6984L28.8481 26.6984L26.5814 24.5464L25.6335 25.5463L27.9002 27.6984ZM31.971 26.2776L35.9502 28.5693L37.5085 25.8609L33.5294 23.5693L31.971 26.2776ZM36.7189 33.3193L33.7585 36.4338L36.0252 38.588L38.9835 35.4713L36.7189 33.3193ZM12.721 28.563C4.64603 20.0609 3.29186 12.888 3.12311 9.74218L0.00227958 9.91093C0.210613 13.7651 1.84395 21.6484 10.4564 30.7151L12.721 28.563ZM15.5877 14.7359L16.1835 14.1068L13.9189 11.9547L13.321 12.5838L15.5877 14.7359ZM16.6544 6.27343L14.0273 2.55885L11.4752 4.36302L14.1002 8.0776L16.6544 6.27343ZM14.4523 13.6589C14.0773 13.2975 13.6988 12.9399 13.3169 12.5859L13.3127 12.5901L13.3064 12.5964C13.2695 12.6346 13.2347 12.675 13.2023 12.7172C12.9981 12.9875 12.8365 13.2875 12.7231 13.6068C12.5189 14.1797 12.4106 14.938 12.5481 15.8839C12.8189 17.7422 14.0377 20.2401 17.2189 23.5922L19.4856 21.438C16.5106 18.3068 15.7773 16.3797 15.6398 15.4297C15.5731 14.9713 15.6398 14.7318 15.6669 14.6547L15.6835 14.6151C15.6665 14.6425 15.647 14.6683 15.6252 14.6922C15.613 14.7063 15.6005 14.7223 15.5877 14.7359L14.4523 13.6589ZM17.2189 23.5901C20.3919 26.9318 22.7877 28.2443 24.6148 28.5422C25.5544 28.6943 26.3148 28.5713 26.8898 28.3443C27.2084 28.2192 27.5046 28.0433 27.7669 27.8234L27.8419 27.7526L27.871 27.7234C27.8759 27.7193 27.8808 27.7152 27.8856 27.7109L27.8919 27.7047L27.8939 27.7005C27.8939 27.7005 27.8981 27.6984 26.7648 26.6214C25.6314 25.5464 25.6335 25.5443 25.6335 25.5422L25.6377 25.5401L25.6419 25.5339L25.6544 25.5234C25.6859 25.493 25.7185 25.4638 25.7523 25.4359C25.771 25.4234 25.7689 25.4276 25.7419 25.438C25.7002 25.4547 25.5127 25.5214 25.1169 25.4568C24.2794 25.3193 22.471 24.5818 19.4856 21.438L17.2189 23.5901ZM14.0273 2.55885C11.9148 -0.42865 7.68978 -0.934899 5.13561 1.75677L7.4002 3.90885C8.48978 2.76302 10.4085 2.8526 11.4752 4.36302L14.0273 2.55885ZM33.7585 36.4338C33.1773 37.0463 32.571 37.3755 31.9794 37.4338L32.2856 40.5422C33.8419 40.3901 35.1023 39.5609 36.0252 38.588L33.7585 36.4359V36.4338ZM16.1835 14.1068C18.2002 11.9839 18.3419 8.66302 16.6544 6.27343L14.1023 8.0776C14.9814 9.32135 14.846 10.9797 13.9189 11.9547L16.1835 14.1068ZM35.9502 28.5693C37.6606 29.5547 37.996 31.9755 36.7189 33.3193L38.9835 35.4713C41.7023 32.6088 40.9085 27.8193 37.5085 25.8609L35.9502 28.5693ZM28.8481 26.6984C29.6502 25.8526 30.9023 25.663 31.971 26.2776L33.5294 23.5693C31.2398 22.2526 28.4044 22.6297 26.5814 24.5464L28.8481 26.6984ZM19.1856 33.9443C17.1377 32.6568 14.9564 30.9151 12.721 28.563L10.4564 30.7151C12.8606 33.2464 15.2419 35.1568 17.5231 36.5901L19.1856 33.9443ZM31.9773 37.4338C30.242 37.5862 28.4936 37.4745 26.7919 37.1026L26.1523 40.163C28.1657 40.5991 30.2338 40.727 32.2856 40.5422L31.9794 37.4338H31.9773Z" fill="white"/>
</svg>
