<svg width="36" height="36" viewBox="0 0 36 36" fill="none" xmlns="http://www.w3.org/2000/svg">
<path fill-rule="evenodd" clip-rule="evenodd" d="M10.5 4C6.91015 4 4 6.91015 4 10.5V25.5C4 29.0899 6.91015 32 10.5 32H25.5C29.0899 32 32 29.0899 32 25.5V10.5C32 6.91015 29.0899 4 25.5 4H10.5ZM2 10.5C2 5.80558 5.80558 2 10.5 2H25.5C30.1944 2 34 5.80558 34 10.5V25.5C34 30.1944 30.1944 34 25.5 34H10.5C5.80558 34 2 30.1944 2 25.5V10.5Z" fill="black"/>
<path fill-rule="evenodd" clip-rule="evenodd" d="M18.7984 12.9892C17.7581 12.8349 16.6956 13.0126 15.7621 13.497C14.8286 13.9814 14.0716 14.7478 13.5988 15.6872C13.1259 16.6266 12.9614 17.6912 13.1285 18.7295C13.2955 19.7678 13.7858 20.727 14.5294 21.4707C15.2731 22.2143 16.2323 22.7045 17.2706 22.8716C18.3089 23.0387 19.3735 22.8741 20.3129 22.4013C21.2523 21.9285 22.0187 21.1715 22.5031 20.238C22.9874 19.3045 23.1651 18.242 23.0109 17.2017C22.8535 16.1406 22.359 15.1581 21.6005 14.3996C20.8419 13.641 19.8595 13.1466 18.7984 12.9892ZM14.841 11.7218C16.1479 11.0436 17.6353 10.7949 19.0917 11.0108C20.5773 11.2311 21.9527 11.9234 23.0147 12.9854C24.0767 14.0474 24.7689 15.4227 24.9892 16.9083C25.2052 18.3648 24.9564 19.8522 24.2783 21.1591C23.6002 22.466 22.5272 23.5258 21.2121 24.1878C19.8969 24.8497 18.4065 25.0801 16.9529 24.8462C15.4992 24.6123 14.1563 23.926 13.1152 22.8849C12.0741 21.8438 11.3878 20.5009 11.1539 19.0472C10.9199 17.5936 11.1503 16.1032 11.8123 14.788C12.4743 13.4728 13.5341 12.3999 14.841 11.7218Z" fill="black"/>
<path fill-rule="evenodd" clip-rule="evenodd" d="M25.25 9.75C25.25 9.19772 25.6977 8.75 26.25 8.75H26.2658C26.8181 8.75 27.2658 9.19772 27.2658 9.75C27.2658 10.3023 26.8181 10.75 26.2658 10.75H26.25C25.6977 10.75 25.25 10.3023 25.25 9.75Z" fill="black"/>
</svg>
