<svg width="135" height="135" viewBox="0 0 135 135" fill="none" xmlns="http://www.w3.org/2000/svg">
<path d="M107.206 7.94164C101.941 7.94164 96.8909 10.0334 93.1677 13.7568C89.4446 17.4801 87.3529 22.5301 87.3529 27.7957C87.3529 33.0614 89.4446 38.1114 93.1677 41.8347C96.8909 45.5581 101.941 47.6499 107.206 47.6499C112.471 47.6499 117.521 45.5581 121.244 41.8347C124.967 38.1114 127.059 33.0614 127.059 27.7957C127.059 22.5301 124.967 17.4801 121.244 13.7568C117.521 10.0334 112.471 7.94164 107.206 7.94164ZM79.4118 27.7957C79.4118 24.1456 80.1307 20.5311 81.5275 17.1588C82.9242 13.7864 84.9716 10.7223 87.5525 8.14119C90.1334 5.56011 93.1974 3.51269 96.5695 2.11583C99.9417 0.718958 103.556 0 107.206 0C110.856 0 114.47 0.718958 117.842 2.11583C121.214 3.51269 124.278 5.56011 126.859 8.14119C129.44 10.7223 131.488 13.7864 132.884 17.1588C134.281 20.5311 135 24.1456 135 27.7957C135 35.1676 132.072 42.2376 126.859 47.4503C121.647 52.663 114.577 55.5915 107.206 55.5915C99.8344 55.5915 92.7649 52.663 87.5525 47.4503C82.3401 42.2376 79.4118 35.1676 79.4118 27.7957ZM7.94118 71.4748C7.94118 63.0498 11.2878 54.9698 17.2448 49.0124C23.2019 43.055 31.2814 39.7082 39.7059 39.7082C48.1304 39.7082 56.2099 43.055 62.1669 49.0124C68.124 54.9698 71.4706 63.0498 71.4706 71.4748C71.4706 79.8998 68.124 87.9798 62.1669 93.9371C56.2099 99.8945 48.1304 103.241 39.7059 103.241C31.2814 103.241 23.2019 99.8945 17.2448 93.9371C11.2878 87.9798 7.94118 79.8998 7.94118 71.4748ZM39.7059 31.7666C29.1752 31.7666 19.0759 35.9501 11.6296 43.3968C4.18329 50.8436 0 60.9435 0 71.4748C0 82.0061 4.18329 92.106 11.6296 99.5527C19.0759 106.999 29.1752 111.183 39.7059 111.183C50.2365 111.183 60.3359 106.999 67.7822 99.5527C75.2285 92.106 79.4118 82.0061 79.4118 71.4748C79.4118 60.9435 75.2285 50.8436 67.7822 43.3968C60.3359 35.9501 50.2365 31.7666 39.7059 31.7666ZM83.3744 135C77.5237 134.999 71.8224 133.152 67.0818 129.723C62.3412 126.294 58.8027 121.457 56.97 115.9C59.4874 114.924 61.9015 113.732 64.1965 112.358C65.143 115.887 67.0447 119.087 69.6922 121.605C72.3397 124.123 75.6304 125.862 79.2023 126.63C82.7742 127.399 86.4888 127.167 89.9375 125.96C93.3862 124.754 96.4352 122.619 98.7492 119.792C101.063 116.964 102.552 113.553 103.053 109.934C103.553 106.314 103.046 102.627 101.586 99.2774C100.127 95.9278 97.7713 93.0458 94.7795 90.9485C91.7878 88.8512 88.2755 87.6198 84.6291 87.3898C85.5267 84.8581 86.2068 82.2544 86.6621 79.607C93.693 80.4519 100.136 83.9488 104.676 89.3838C109.216 94.8187 111.511 101.782 111.091 108.851C110.672 115.921 107.57 122.563 102.419 127.423C97.2676 132.283 90.4559 134.993 83.3744 135ZM45.0026 49.2382C44.5109 49.064 43.9897 48.9884 43.4688 49.0157C42.9479 49.0429 42.4375 49.1726 41.9666 49.3971C41.4958 49.6217 41.0738 49.9368 40.7247 50.3244C40.3757 50.7121 40.1064 51.1647 39.9322 51.6564C39.758 52.1481 39.6824 52.6694 39.7097 53.1903C39.737 53.7113 39.8666 54.2218 40.0911 54.6926C40.3157 55.1635 40.6307 55.5855 41.0184 55.9346C41.406 56.2837 41.8586 56.553 42.3503 56.7272C47.9885 58.7205 52.4674 63.1917 54.4606 68.8302C54.6219 69.3376 54.8837 69.8074 55.2302 70.2116C55.5768 70.6158 56.001 70.9462 56.4778 71.1831C56.9547 71.42 57.4742 71.5586 58.0057 71.5906C58.5371 71.6226 59.0696 71.5474 59.5714 71.3695C60.0732 71.1916 60.5341 70.9145 60.9267 70.5549C61.3192 70.1952 61.6355 69.7602 61.8565 69.2759C62.0776 68.7915 62.1991 68.2676 62.2136 67.7354C62.2281 67.2032 62.1355 66.6734 61.9412 66.1777C60.5554 62.272 58.3158 58.7247 55.3855 55.7942C52.4553 52.8638 48.9081 50.624 45.0026 49.2382Z" fill="black"/>
<path d="M107.206 7.94164C101.941 7.94164 96.8909 10.0334 93.1677 13.7568C89.4446 17.4801 87.3529 22.5301 87.3529 27.7957C87.3529 33.0614 89.4446 38.1114 93.1677 41.8347C96.8909 45.5581 101.941 47.6499 107.206 47.6499C112.471 47.6499 117.521 45.5581 121.244 41.8347C124.967 38.1114 127.059 33.0614 127.059 27.7957C127.059 22.5301 124.967 17.4801 121.244 13.7568C117.521 10.0334 112.471 7.94164 107.206 7.94164ZM79.4118 27.7957C79.4118 24.1456 80.1307 20.5311 81.5275 17.1588C82.9242 13.7864 84.9716 10.7223 87.5525 8.14119C90.1334 5.56011 93.1974 3.51269 96.5695 2.11583C99.9417 0.718958 103.556 0 107.206 0C110.856 0 114.47 0.718958 117.842 2.11583C121.214 3.51269 124.278 5.56011 126.859 8.14119C129.44 10.7223 131.488 13.7864 132.884 17.1588C134.281 20.5311 135 24.1456 135 27.7957C135 35.1676 132.072 42.2376 126.859 47.4503C121.647 52.663 114.577 55.5915 107.206 55.5915C99.8344 55.5915 92.7649 52.663 87.5525 47.4503C82.3401 42.2376 79.4118 35.1676 79.4118 27.7957ZM7.94118 71.4748C7.94118 63.0498 11.2878 54.9698 17.2448 49.0124C23.2019 43.055 31.2814 39.7082 39.7059 39.7082C48.1304 39.7082 56.2099 43.055 62.1669 49.0124C68.124 54.9698 71.4706 63.0498 71.4706 71.4748C71.4706 79.8998 68.124 87.9798 62.1669 93.9371C56.2099 99.8945 48.1304 103.241 39.7059 103.241C31.2814 103.241 23.2019 99.8945 17.2448 93.9371C11.2878 87.9798 7.94118 79.8998 7.94118 71.4748ZM39.7059 31.7666C29.1752 31.7666 19.0759 35.9501 11.6296 43.3968C4.18329 50.8436 0 60.9435 0 71.4748C0 82.0061 4.18329 92.106 11.6296 99.5527C19.0759 106.999 29.1752 111.183 39.7059 111.183C50.2365 111.183 60.3359 106.999 67.7822 99.5527C75.2285 92.106 79.4118 82.0061 79.4118 71.4748C79.4118 60.9435 75.2285 50.8436 67.7822 43.3968C60.3359 35.9501 50.2365 31.7666 39.7059 31.7666ZM83.3744 135C77.5237 134.999 71.8224 133.152 67.0818 129.723C62.3412 126.294 58.8027 121.457 56.97 115.9C59.4874 114.924 61.9015 113.732 64.1965 112.358C65.143 115.887 67.0447 119.087 69.6922 121.605C72.3397 124.123 75.6304 125.862 79.2023 126.63C82.7742 127.399 86.4888 127.167 89.9375 125.96C93.3862 124.754 96.4352 122.619 98.7492 119.792C101.063 116.964 102.552 113.553 103.053 109.934C103.553 106.314 103.046 102.627 101.586 99.2774C100.127 95.9278 97.7713 93.0458 94.7795 90.9485C91.7878 88.8512 88.2755 87.6198 84.6291 87.3898C85.5267 84.8581 86.2068 82.2544 86.6621 79.607C93.693 80.4519 100.136 83.9488 104.676 89.3838C109.216 94.8187 111.511 101.782 111.091 108.851C110.672 115.921 107.57 122.563 102.419 127.423C97.2676 132.283 90.4559 134.993 83.3744 135ZM45.0026 49.2382C44.5109 49.064 43.9897 48.9884 43.4688 49.0157C42.9479 49.0429 42.4375 49.1726 41.9666 49.3971C41.4958 49.6217 41.0738 49.9368 40.7247 50.3244C40.3757 50.7121 40.1064 51.1647 39.9322 51.6564C39.758 52.1481 39.6824 52.6694 39.7097 53.1903C39.737 53.7113 39.8666 54.2218 40.0911 54.6926C40.3157 55.1635 40.6307 55.5855 41.0184 55.9346C41.406 56.2837 41.8586 56.553 42.3503 56.7272C47.9885 58.7205 52.4674 63.1917 54.4606 68.8302C54.6219 69.3376 54.8837 69.8074 55.2302 70.2116C55.5768 70.6158 56.001 70.9462 56.4778 71.1831C56.9547 71.42 57.4742 71.5586 58.0057 71.5906C58.5371 71.6226 59.0696 71.5474 59.5714 71.3695C60.0732 71.1916 60.5341 70.9145 60.9267 70.5549C61.3192 70.1952 61.6355 69.7602 61.8565 69.2759C62.0776 68.7915 62.1991 68.2676 62.2136 67.7354C62.2281 67.2032 62.1355 66.6734 61.9412 66.1777C60.5554 62.272 58.3158 58.7247 55.3855 55.7942C52.4553 52.8638 48.9081 50.624 45.0026 49.2382Z" stroke="black"/>
</svg>
